<svg version="1.0" xmlns="http://www.w3.org/2000/svg"
 width="102.000000pt" height="102.000000pt" viewBox="0 0 102.000000 102.000000"
 preserveAspectRatio="xMidYMid meet">

<g transform="translate(0.000000,102.000000) scale(0.100000,-0.100000)"
fill="currentColor" stroke="none">
<path d="M388 984 c-140 -33 -253 -126 -320 -262 -41 -81 -43 -90 -46 -191 -3
-89 0 -117 18 -170 41 -121 133 -232 238 -285 88 -45 160 -56 360 -56 l182 0
0 90 0 90 90 0 90 0 0 153 c0 197 -12 274 -55 365 -99 209 -333 321 -557 266z
m284 -106 c105 -48 191 -149 222 -259 13 -42 16 -90 14 -195 l-3 -139 -41 -3
-42 -3 -4 153 c-4 142 -6 157 -31 210 -68 140 -235 211 -381 162 -62 -21 -148
-101 -181 -169 -21 -42 -26 -67 -26 -125 0 -123 62 -225 169 -277 54 -26 66
-28 210 -31 l152 -4 0 -44 0 -44 -150 0 c-126 0 -158 3 -205 21 -170 63 -268
202 -268 379 0 174 90 305 258 376 53 22 72 24 155 21 77 -2 106 -8 152 -29z
m-65 -169 c53 -26 97 -78 112 -133 7 -24 11 -93 9 -166 l-3 -125 -98 -3 c-54
-1 -123 2 -152 7 -212 39 -264 305 -80 412 64 37 146 40 212 8z"/>
</g>
</svg>
